<?xml version="1.0" encoding="UTF-8"?>
<svg width="1080px" height="1080px" viewBox="0 0 1080 1080" xmlns="http://www.w3.org/2000/svg" xmlns:xlink="http://www.w3.org/1999/xlink" version="1.1">
 <!-- Generated by Pixelmator Pro 2.0.6 -->
 <defs>
  <linearGradient id="linear-gradient" gradientUnits="userSpaceOnUse" x1="618.433" y1="290.644" x2="723.744" y2="1440.31">
   <stop offset="0" stop-color="#465be5" stop-opacity="1"/>
   <stop offset="1" stop-color="#cd00be" stop-opacity="1"/>
  </linearGradient>
 </defs>
 <path id="Rounded-Rectangle" d="M114 0.164 C51.04 0.164 0 51.204 0 114.164 L0 966 C0 1028.96 51.04 1080 114 1080 L966 1080 C1028.96 1080 1080 1028.96 1080 966 L1080 114.164 C1080 51.204 1028.96 0.164 966 0.164 Z" fill-opacity="1" fill="url(#linear-gradient)" stroke="#000000" stroke-width="0.8" stroke-opacity="0.557" stroke-linejoin="round" stroke-linecap="round"/>
 <path id="Path" d="M559.824 523.093 C599.615 562.884 629.581 605.27 645.831 641.662 663.255 680.588 665.047 713.643 647.129 731.562 638.726 739.965 626.924 744.043 612.775 744.166 L298.713 884.113 C219.132 923.471 179.959 929.403 166.551 908.272 153.885 888.315 168.899 845.991 196.209 785.872 L338.998 464.21 C340.11 452.656 344.065 443.018 351.294 435.789 369.212 417.87 402.268 419.662 441.193 437.086 477.648 453.336 520.033 483.241 559.824 523.093 Z M877.778 710.554 C887.17 719.946 887.17 735.207 877.778 744.599 868.387 753.99 853.126 753.99 843.734 744.599 834.342 735.207 834.342 719.946 843.734 710.554 853.126 701.163 868.325 701.163 877.778 710.554 Z M900.64 598.349 C907.313 597.114 913.738 601.501 914.974 608.174 916.21 614.846 911.823 621.272 905.15 622.508 872.465 628.687 844.97 608.668 816.548 588.031 779.167 560.845 739.932 532.299 690.318 583.273 685.622 588.155 677.837 588.216 672.955 583.521 668.074 578.825 668.013 571.04 672.708 566.159 737.152 499.923 785.222 534.833 830.944 568.136 855.041 585.621 878.335 602.551 900.64 598.349 Z M906.262 231.769 C913.059 231.769 918.496 237.268 918.496 244.003 918.496 250.799 912.997 256.236 906.262 256.236 849.789 256.36 834.96 301.835 819.266 349.905 801.039 405.822 781.762 464.767 705.27 477.865 698.164 479.101 690.874 480.275 682.841 481.387 675.18 482.438 667.58 483.303 659.918 483.797 653.122 484.229 647.314 479.101 646.881 472.305 646.449 465.508 651.577 459.7 658.374 459.268 665.541 458.773 672.585 458.032 679.567 457.043 686.24 456.116 693.592 454.942 701.13 453.645 762.979 443.079 779.908 391.364 795.849 342.367 814.447 285.585 831.933 231.954 906.262 231.769 Z M472.396 171.032 C473.631 164.359 480.057 159.973 486.73 161.208 493.403 162.444 497.79 168.87 496.554 175.543 492.538 196.736 507.243 219.35 522.381 242.581 553.831 290.961 586.887 341.687 503.66 407.552 498.346 411.754 490.623 410.827 486.421 405.513 482.22 400.199 483.147 392.476 488.46 388.275 554.14 336.312 527.386 295.1 501.806 255.866 483.888 228.494 466.526 201.864 472.396 171.032 Z M751.548 207.487 L728.069 253.827 762.732 288.86 713.611 282.187 689.947 326.055 682.162 277.244 633.165 268.594 677.157 245.794 669.99 194.82 705.579 231.336 Z M640.456 357.876 C649.847 367.267 649.847 382.528 640.456 391.92 631.064 401.312 615.803 401.312 606.411 391.92 597.02 382.528 597.02 367.267 606.411 357.876 615.803 348.484 631.064 348.484 640.456 357.876 Z M605.299 193.09 C614.691 202.482 614.691 217.743 605.299 227.135 595.907 236.526 580.646 236.526 571.254 227.135 561.863 217.743 561.863 202.482 571.254 193.09 580.646 183.699 595.907 183.699 605.299 193.09 Z M449.844 312.277 C459.235 321.669 459.235 336.93 449.844 346.321 440.452 355.713 425.191 355.713 415.799 346.321 406.408 336.93 406.408 321.669 415.799 312.277 425.191 302.885 440.39 302.885 449.844 312.277 Z M864 449.629 C873.392 459.02 873.392 474.282 864 483.673 854.608 493.065 839.347 493.065 829.956 483.673 820.564 474.282 820.564 459.02 829.956 449.629 839.347 440.237 854.608 440.237 864 449.629 Z M788.373 634.371 L759.148 653.463 767.551 685.469 741.23 665.079 712.746 682.627 724.609 651.61 699.029 630.108 732.271 631.591 745.246 599.523 753.649 632.703 Z M361.921 544.41 C386.389 616.206 440.328 708.948 517.685 766.409 L579.657 738.729 C572.428 736.505 564.952 733.662 557.167 730.202 520.775 713.952 478.389 683.986 438.598 644.195 405.481 611.078 379.16 576.168 361.921 544.41 Z M428.342 806.2 C362.106 747.997 322.748 684.542 290.001 619.851 L248.913 712.469 C264.731 745.34 308.105 800.825 349.564 841.295 Z M266.955 878.861 C236.062 852.231 221.912 835.981 206.651 807.436 185.767 854.455 174.522 886.646 181.998 898.386 188.548 908.642 214.004 903.452 266.955 878.861 Z M357.225 465.817 C357.287 466.249 357.287 466.744 357.225 467.238 356.607 476.444 358.337 487.38 362.292 499.614 364.207 505.484 366.617 511.724 369.521 518.212 384.844 552.565 413.513 592.912 451.759 631.22 490.005 669.466 530.413 698.135 564.767 713.458 572.12 716.733 579.163 719.451 585.774 721.429 594.857 724.147 603.198 725.692 610.613 725.815 611.169 725.815 611.725 725.877 612.281 725.939 621.549 725.877 629.025 723.468 634.03 718.463 645.955 706.538 643.174 680.896 628.963 649.138 613.64 614.785 584.971 574.438 546.725 536.13 508.479 497.884 468.071 469.215 433.717 453.892 401.959 439.681 376.317 436.901 364.393 448.826 360.315 452.965 357.967 458.711 357.225 465.817 Z" fill="#ffffff" fill-opacity="1" stroke="none"/>
</svg>
